<?xml version="1.0" encoding="UTF-8" standalone="no"?>
<!-- Created with Inkscape (http://www.inkscape.org/) -->

<svg
   width="5.2916641mm"
   height="5.2644043mm"
   viewBox="0 0 5.2916641 5.2644043"
   version="1.1"
   id="svg5"
   xml:space="preserve"
   inkscape:version="1.2.1 (9c6d41e410, 2022-07-14)"
   sodipodi:docname="facebook.svg"
   xmlns:inkscape="http://www.inkscape.org/namespaces/inkscape"
   xmlns:sodipodi="http://sodipodi.sourceforge.net/DTD/sodipodi-0.dtd"
   xmlns="http://www.w3.org/2000/svg"
   xmlns:svg="http://www.w3.org/2000/svg"><sodipodi:namedview
     id="namedview7"
     pagecolor="#505050"
     bordercolor="#eeeeee"
     borderopacity="1"
     inkscape:showpageshadow="0"
     inkscape:pageopacity="0"
     inkscape:pagecheckerboard="0"
     inkscape:deskcolor="#505050"
     inkscape:document-units="mm"
     showgrid="false"
     showguides="true"
     inkscape:zoom="43.875991"
     inkscape:cx="9.9940762"
     inkscape:cy="9.9484932"
     inkscape:window-width="1920"
     inkscape:window-height="1056"
     inkscape:window-x="1366"
     inkscape:window-y="24"
     inkscape:window-maximized="1"
     inkscape:current-layer="layer1" /><defs
     id="defs2" /><g
     inkscape:label="Layer 1"
     inkscape:groupmode="layer"
     id="layer1"
     transform="translate(-99.306048,-94.427343)"><path
       style="opacity:1;fill:#ffffff;fill-opacity:1;stroke:none;stroke-width:0.264583px;stroke-linecap:butt;stroke-linejoin:miter;stroke-opacity:1"
       d="m 101.55633,99.686203 v -1.911879 h -0.65457 v -0.69559 h 0.65457 v -0.462756 c 0,0 8e-4,-0.363874 0.0811,-0.532908 0.0803,-0.169037 0.15173,-0.38567 0.51926,-0.510749 0.36753,-0.125077 0.95249,-0.02606 0.95249,-0.02606 v 0.606955 h -0.43444 c 0,0 -0.36486,-0.0432 -0.36486,0.545306 v 0.380206 h 0.79242 l -0.10742,0.69559 h -0.68474 c 0,0 -1e-5,1.631609 0,1.917435 0.54441,-1e-6 2.28758,-0.719129 2.28758,-2.632201 0,-1.502497 -1.24149,-2.632214 -2.64584,-2.63221 -1.36862,4e-6 -2.645826,1.074426 -2.645826,2.645837 0,1.898802 1.755496,2.613074 2.250276,2.613074 2e-5,0 0,-5e-5 0,-5e-5 z"
       id="path7759"
       sodipodi:nodetypes="ccccccsscccscccccssssc" /></g></svg>
