<?xml version="1.0" encoding="UTF-8" standalone="no"?>
<!-- Created with Inkscape (http://www.inkscape.org/) -->

<svg
   width="4.7625008mm"
   height="4.762619mm"
   viewBox="0 0 4.7625008 4.762619"
   version="1.1"
   id="svg5"
   xml:space="preserve"
   inkscape:version="1.2.1 (9c6d41e410, 2022-07-14)"
   sodipodi:docname="instagram.svg"
   xmlns:inkscape="http://www.inkscape.org/namespaces/inkscape"
   xmlns:sodipodi="http://sodipodi.sourceforge.net/DTD/sodipodi-0.dtd"
   xmlns="http://www.w3.org/2000/svg"
   xmlns:svg="http://www.w3.org/2000/svg"><sodipodi:namedview
     id="namedview7"
     pagecolor="#505050"
     bordercolor="#eeeeee"
     borderopacity="1"
     inkscape:showpageshadow="0"
     inkscape:pageopacity="0"
     inkscape:pagecheckerboard="0"
     inkscape:deskcolor="#505050"
     inkscape:document-units="mm"
     showgrid="false"
     showguides="true"
     inkscape:zoom="48.498742"
     inkscape:cx="9.0002335"
     inkscape:cy="9.0002335"
     inkscape:window-width="1920"
     inkscape:window-height="1056"
     inkscape:window-x="1366"
     inkscape:window-y="24"
     inkscape:window-maximized="1"
     inkscape:current-layer="layer1" /><defs
     id="defs2" /><g
     inkscape:label="Layer 1"
     inkscape:groupmode="layer"
     id="layer1"
     transform="translate(-63.712392,-94.678334)"><path
       id="rect983"
       style="opacity:1;fill:#ffffff;stroke-width:0.359944;stroke-linecap:round;stroke-linejoin:round"
       d="m 64.96141,94.678459 c -0.695003,0.01749 -1.24902,0.582726 -1.24902,1.282092 v 2.197799 c 0,0.710467 0.571625,1.282609 1.282092,1.282609 h 2.197799 c 0.710467,0 1.282609,-0.572142 1.282609,-1.282609 v -2.197799 c 0,-0.710467 -0.572142,-1.282092 -1.282609,-1.282092 h -2.197799 c -0.0111,0 -0.02204,-2.78e-4 -0.03307,0 z m 2.719213,0.52865 a 0.26508465,0.26508465 0 0 1 0.2651,0.2651 0.26508465,0.26508465 0 0 1 -0.2651,0.2651 0.26508465,0.26508465 0 0 1 -0.2651,-0.2651 0.26508465,0.26508465 0 0 1 0.2651,-0.2651 z m -1.586983,0.5302 a 1.3220482,1.3220482 0 0 1 1.321883,1.3224 1.3220482,1.3220482 0 0 1 -1.321883,1.321883 1.3220482,1.3220482 0 0 1 -1.3224,-1.321883 1.3220482,1.3220482 0 0 1 1.3224,-1.3224 z m 0,0.52865 a 0.79374468,0.79374468 0 0 0 -0.79375,0.79375 0.79374468,0.79374468 0 0 0 0.79375,0.79375 0.79374468,0.79374468 0 0 0 0.79375,-0.79375 0.79374468,0.79374468 0 0 0 -0.79375,-0.79375 z" /></g></svg>
