<?xml version="1.0" encoding="UTF-8" standalone="no"?>
<!-- Created with Inkscape (http://www.inkscape.org/) -->

<svg
   width="5.2916641mm"
   height="4.2334366mm"
   viewBox="0 0 5.2916641 4.2334366"
   version="1.1"
   id="svg5"
   xml:space="preserve"
   inkscape:version="1.2.1 (9c6d41e410, 2022-07-14)"
   sodipodi:docname="youtube.svg"
   xmlns:inkscape="http://www.inkscape.org/namespaces/inkscape"
   xmlns:sodipodi="http://sodipodi.sourceforge.net/DTD/sodipodi-0.dtd"
   xmlns="http://www.w3.org/2000/svg"
   xmlns:svg="http://www.w3.org/2000/svg"><sodipodi:namedview
     id="namedview7"
     pagecolor="#505050"
     bordercolor="#eeeeee"
     borderopacity="1"
     inkscape:showpageshadow="0"
     inkscape:pageopacity="0"
     inkscape:pagecheckerboard="0"
     inkscape:deskcolor="#505050"
     inkscape:document-units="mm"
     showgrid="false"
     showguides="true"
     inkscape:zoom="54.561158"
     inkscape:cx="9.9979549"
     inkscape:cy="8.0001967"
     inkscape:window-width="1920"
     inkscape:window-height="1056"
     inkscape:window-x="1366"
     inkscape:window-y="24"
     inkscape:window-maximized="1"
     inkscape:current-layer="layer1" /><defs
     id="defs2" /><g
     inkscape:label="Layer 1"
     inkscape:groupmode="layer"
     id="layer1"
     transform="translate(-81.244654,-94.942937)"><path
       id="rect3341"
       style="opacity:1;fill:#ffffff;fill-opacity:1;stroke-width:0.334118;stroke-linecap:round;stroke-linejoin:round"
       d="m 83.704451,94.943042 c -1.903422,0.0073 -2.02362,0.126618 -2.179711,0.283704 -0.143082,0.143971 -0.280087,0.280005 -0.280087,1.851566 0,1.533844 0.147547,1.686513 0.288872,1.823145 0.13677,0.137642 0.275237,0.274918 2.362129,0.274918 1.920439,0 2.167782,-0.09401 2.394686,-0.32091 0.08933,-0.08933 0.24598,-0.252255 0.24598,-1.800407 0,-1.54842 -0.151859,-1.698757 -0.279053,-1.826762 -0.171981,-0.173096 -0.284994,-0.285254 -2.363163,-0.285254 -0.06517,0 -0.128252,-2.35e-4 -0.189653,0 z m -0.343131,1.199927 1.5875,0.91674 -1.5875,0.916223 z" /></g></svg>
